# xmcd
# Track frame offsets:
# 150
# 13139
# 25508
# 41233
# 54341
# 71126
# 83666
# 105229
# 121179
# 136370
# 148667
# 163752
#
# Disc length: 2313 seconds
# Revision: 0
# Processed by: cddbd v1.5.2PL0 Copyright (c) Steve Scherf et al.
# Submitted via: VisiTrax 2.11.3.279 - For more info visit www.synapsa.com
#
DISCID=9b09070c
DTITLE=Sofie Reed - Simplicity chased trouble away
DYEAR=2012
DGENRE=Blues
TTITLE0=Glitter Girl
TTITLE1=Leaving this morning
TTITLE2=Simplicity chased trouble away
TTITLE3=The village rooster
TTITLE4=Human every day
TTITLE5=Tinder for your love
TTITLE6=Open
TTITLE7=Outside the city
TTITLE8=Peace lovin you
TTITLE9=Why you so negative
TTITLE10=Nobody knows the trouble I´ve seen
TTITLE11=Bye bye bird
EXTD=
EXTT0=
EXTT1=
EXTT2=
EXTT3=
EXTT4=
EXTT5=
EXTT6=
EXTT7=
EXTT8=
EXTT9=
EXTT10=
EXTT11=
PLAYORDER=
